<svg width="700" height="560" viewBox="0 0 700 560" xmlns="http://www.w3.org/2000/svg" fill="none">
  <rect width="700" height="560" rx="24" fill="#D5DEEC"/>
  <ellipse cx="260" cy="430" rx="140" ry="46" fill="#BBC8DD"/>
  <path d="M194 135C194 115 210 99 230 99H356C376 99 392 115 392 135V392C392 412 376 428 356 428H230C210 428 194 412 194 392V135Z" fill="#141B24"/>
  <path d="M205 153C205 140 216 129 229 129H357V399C357 412 346 423 333 423H229C216 423 205 412 205 399V153Z" fill="#F8FAFD"/>
  <rect x="245" y="112" width="100" height="8" rx="4" fill="#2A3240"/>
  <circle cx="298" cy="409" r="7" fill="#D0DAE8"/>

  <path d="M120 300C120 260 151 234 180 234C210 234 226 259 234 290L252 356C260 388 246 414 214 420C174 428 130 396 120 356V300Z" fill="#E9C5A7"/>
  <rect x="223" y="275" width="18" height="120" rx="9" transform="rotate(-24 223 275)" fill="#E3B18D"/>
</svg>
